<mxfile host="Electron" agent="Mozilla/5.0 (X11; Linux x86_64) AppleWebKit/537.36 (KHTML, like Gecko) draw.io/24.7.5 Chrome/126.0.6478.183 Electron/31.3.0 Safari/537.36" version="24.7.5">
  <diagram id="BOabqvcUT-HDXYM-wLo1" name="Page-1">
    <mxGraphModel dx="1434" dy="822" grid="1" gridSize="10" guides="1" tooltips="1" connect="1" arrows="1" fold="1" page="1" pageScale="1" pageWidth="850" pageHeight="1100" math="0" shadow="0">
      <root>
        <mxCell id="0" />
        <mxCell id="1" parent="0" />
        <mxCell id="MHCM0cQoQ7_CIhpQqt6W-55" value="&lt;div style=&quot;text-align: justify;&quot;&gt;&lt;span style=&quot;background-color: initial;&quot;&gt;Agora Front&lt;/span&gt;&lt;/div&gt;" style="shape=document;whiteSpace=wrap;html=1;boundedLbl=1;fontStyle=1;fillColor=#f5f5f5;fontColor=#333333;strokeColor=#666666;" parent="1" vertex="1">
          <mxGeometry x="500" y="1000" width="210" height="220" as="geometry" />
        </mxCell>
        <mxCell id="MHCM0cQoQ7_CIhpQqt6W-19" style="edgeStyle=orthogonalEdgeStyle;rounded=0;orthogonalLoop=1;jettySize=auto;html=1;exitX=1;exitY=0.5;exitDx=0;exitDy=0;" parent="1" source="MHCM0cQoQ7_CIhpQqt6W-40" target="MHCM0cQoQ7_CIhpQqt6W-44" edge="1">
          <mxGeometry relative="1" as="geometry">
            <mxPoint x="230" y="1085" as="sourcePoint" />
            <mxPoint x="510" y="1130" as="targetPoint" />
            <Array as="points">
              <mxPoint x="440" y="1105" />
              <mxPoint x="440" y="1105" />
            </Array>
          </mxGeometry>
        </mxCell>
        <mxCell id="MHCM0cQoQ7_CIhpQqt6W-25" style="edgeStyle=orthogonalEdgeStyle;rounded=0;orthogonalLoop=1;jettySize=auto;html=1;entryX=1;entryY=0.5;entryDx=0;entryDy=0;exitX=0;exitY=0.464;exitDx=0;exitDy=0;exitPerimeter=0;" parent="1" target="giGHLxBfAEVUItViNjpn-11" edge="1" source="9nqw4tdUZu72CzklbR2p-28">
          <mxGeometry relative="1" as="geometry">
            <Array as="points" />
            <mxPoint x="525" y="771.5" as="sourcePoint" />
            <mxPoint x="216.07999999999993" y="771.54" as="targetPoint" />
          </mxGeometry>
        </mxCell>
        <mxCell id="MHCM0cQoQ7_CIhpQqt6W-27" value="Privacy-focused&amp;nbsp;&lt;div&gt;&lt;b&gt;French passport VC&lt;/b&gt;&lt;/div&gt;" style="swimlane;fontStyle=0;childLayout=stackLayout;horizontal=1;startSize=30;horizontalStack=0;resizeParent=1;resizeParentMax=0;resizeLast=0;collapsible=1;marginBottom=0;whiteSpace=wrap;html=1;" parent="1" vertex="1">
          <mxGeometry x="45" y="478.5" width="150" height="180" as="geometry" />
        </mxCell>
        <mxCell id="MHCM0cQoQ7_CIhpQqt6W-28" value="Passport ID" style="text;strokeColor=none;fillColor=none;align=left;verticalAlign=middle;spacingLeft=4;spacingRight=4;overflow=hidden;points=[[0,0.5],[1,0.5]];portConstraint=eastwest;rotatable=0;whiteSpace=wrap;html=1;" parent="MHCM0cQoQ7_CIhpQqt6W-27" vertex="1">
          <mxGeometry y="30" width="150" height="30" as="geometry" />
        </mxCell>
        <mxCell id="MHCM0cQoQ7_CIhpQqt6W-29" value="Age" style="text;strokeColor=none;fillColor=none;align=left;verticalAlign=middle;spacingLeft=4;spacingRight=4;overflow=hidden;points=[[0,0.5],[1,0.5]];portConstraint=eastwest;rotatable=0;whiteSpace=wrap;html=1;" parent="MHCM0cQoQ7_CIhpQqt6W-27" vertex="1">
          <mxGeometry y="60" width="150" height="30" as="geometry" />
        </mxCell>
        <mxCell id="giGHLxBfAEVUItViNjpn-6" value="Place of birth" style="text;strokeColor=none;fillColor=none;align=left;verticalAlign=middle;spacingLeft=4;spacingRight=4;overflow=hidden;points=[[0,0.5],[1,0.5]];portConstraint=eastwest;rotatable=0;whiteSpace=wrap;html=1;" vertex="1" parent="MHCM0cQoQ7_CIhpQqt6W-27">
          <mxGeometry y="90" width="150" height="30" as="geometry" />
        </mxCell>
        <mxCell id="giGHLxBfAEVUItViNjpn-7" value="Sex" style="text;strokeColor=none;fillColor=none;align=left;verticalAlign=middle;spacingLeft=4;spacingRight=4;overflow=hidden;points=[[0,0.5],[1,0.5]];portConstraint=eastwest;rotatable=0;whiteSpace=wrap;html=1;" vertex="1" parent="MHCM0cQoQ7_CIhpQqt6W-27">
          <mxGeometry y="120" width="150" height="30" as="geometry" />
        </mxCell>
        <mxCell id="giGHLxBfAEVUItViNjpn-8" value="... other attributes" style="text;strokeColor=none;fillColor=none;align=left;verticalAlign=middle;spacingLeft=4;spacingRight=4;overflow=hidden;points=[[0,0.5],[1,0.5]];portConstraint=eastwest;rotatable=0;whiteSpace=wrap;html=1;" vertex="1" parent="MHCM0cQoQ7_CIhpQqt6W-27">
          <mxGeometry y="150" width="150" height="30" as="geometry" />
        </mxCell>
        <mxCell id="MHCM0cQoQ7_CIhpQqt6W-31" style="edgeStyle=orthogonalEdgeStyle;rounded=0;orthogonalLoop=1;jettySize=auto;html=1;entryX=1;entryY=0.163;entryDx=0;entryDy=0;entryPerimeter=0;exitX=0.035;exitY=0.574;exitDx=0;exitDy=0;exitPerimeter=0;" parent="1" target="MHCM0cQoQ7_CIhpQqt6W-29" edge="1" source="9nqw4tdUZu72CzklbR2p-29">
          <mxGeometry relative="1" as="geometry">
            <Array as="points">
              <mxPoint x="434" y="543" />
            </Array>
            <mxPoint x="522.4999999999999" y="551.5" as="sourcePoint" />
            <mxPoint x="235" y="551.5" as="targetPoint" />
          </mxGeometry>
        </mxCell>
        <mxCell id="MHCM0cQoQ7_CIhpQqt6W-32" value="Issues" style="text;html=1;align=center;verticalAlign=middle;resizable=0;points=[];autosize=1;strokeColor=none;fillColor=none;" parent="1" vertex="1">
          <mxGeometry x="340" y="516.5" width="60" height="30" as="geometry" />
        </mxCell>
        <mxCell id="MHCM0cQoQ7_CIhpQqt6W-39" value="Privacy-focused digital secret VC" style="swimlane;fontStyle=0;childLayout=stackLayout;horizontal=1;startSize=30;horizontalStack=0;resizeParent=1;resizeParentMax=0;resizeLast=0;collapsible=1;marginBottom=0;whiteSpace=wrap;html=1;" parent="1" vertex="1">
          <mxGeometry x="35" y="1050" width="180" height="160" as="geometry" />
        </mxCell>
        <mxCell id="MHCM0cQoQ7_CIhpQqt6W-40" value="Unbound secret: 16/32 bytes-long&amp;nbsp;&lt;i&gt;secret&lt;/i&gt;&amp;nbsp;value, blind-signed on issuance." style="text;strokeColor=none;fillColor=none;align=left;verticalAlign=middle;spacingLeft=4;spacingRight=4;overflow=hidden;points=[[0,0.5],[1,0.5]];portConstraint=eastwest;rotatable=0;whiteSpace=wrap;html=1;" parent="MHCM0cQoQ7_CIhpQqt6W-39" vertex="1">
          <mxGeometry y="30" width="180" height="50" as="geometry" />
        </mxCell>
        <mxCell id="MHCM0cQoQ7_CIhpQqt6W-42" style="edgeStyle=orthogonalEdgeStyle;rounded=0;orthogonalLoop=1;jettySize=auto;html=1;endArrow=none;endFill=0;" parent="MHCM0cQoQ7_CIhpQqt6W-39" source="MHCM0cQoQ7_CIhpQqt6W-41" edge="1">
          <mxGeometry relative="1" as="geometry">
            <mxPoint x="325" y="120" as="targetPoint" />
          </mxGeometry>
        </mxCell>
        <mxCell id="MHCM0cQoQ7_CIhpQqt6W-41" value="Timebound secret: 16/32 bytes-long &lt;i&gt;secret &lt;/i&gt;value, blind-signed on issuance" style="text;strokeColor=none;fillColor=none;align=left;verticalAlign=middle;spacingLeft=4;spacingRight=4;overflow=hidden;points=[[0,0.5],[1,0.5]];portConstraint=eastwest;rotatable=0;whiteSpace=wrap;html=1;" parent="MHCM0cQoQ7_CIhpQqt6W-39" vertex="1">
          <mxGeometry y="80" width="180" height="80" as="geometry" />
        </mxCell>
        <mxCell id="MHCM0cQoQ7_CIhpQqt6W-43" value="Generate proofs with unique pseudonyms&amp;nbsp;&lt;div&gt;uncorrelatable with secrets or unique id&lt;/div&gt;" style="text;html=1;align=center;verticalAlign=middle;resizable=0;points=[];autosize=1;strokeColor=none;fillColor=none;" parent="1" vertex="1">
          <mxGeometry x="245" y="1120" width="250" height="40" as="geometry" />
        </mxCell>
        <mxCell id="MHCM0cQoQ7_CIhpQqt6W-44" value="&lt;b&gt;Nostr&lt;/b&gt;&lt;div&gt;&lt;b&gt;Client&lt;/b&gt;&lt;/div&gt;" style="rhombus;whiteSpace=wrap;html=1;fillColor=#f5f5f5;fontColor=#333333;strokeColor=#666666;" parent="1" vertex="1">
          <mxGeometry x="510" y="1090" width="80" height="80" as="geometry" />
        </mxCell>
        <mxCell id="MHCM0cQoQ7_CIhpQqt6W-50" value="or" style="text;html=1;align=center;verticalAlign=middle;resizable=0;points=[];autosize=1;strokeColor=none;fillColor=none;" parent="1" vertex="1">
          <mxGeometry x="215" y="1120" width="30" height="30" as="geometry" />
        </mxCell>
        <mxCell id="giGHLxBfAEVUItViNjpn-43" style="edgeStyle=orthogonalEdgeStyle;rounded=0;orthogonalLoop=1;jettySize=auto;html=1;endArrow=none;endFill=0;entryX=0.667;entryY=1.003;entryDx=0;entryDy=0;entryPerimeter=0;" edge="1" parent="1" source="9nqw4tdUZu72CzklbR2p-24" target="fR_ARmtr7QuyC3QkmkuL-1">
          <mxGeometry relative="1" as="geometry">
            <mxPoint x="600" y="920" as="targetPoint" />
            <Array as="points">
              <mxPoint x="138" y="920" />
              <mxPoint x="740" y="920" />
            </Array>
          </mxGeometry>
        </mxCell>
        <mxCell id="9nqw4tdUZu72CzklbR2p-24" value="Wallet" style="swimlane;whiteSpace=wrap;html=1;dashed=1;" parent="1" vertex="1">
          <mxGeometry x="25" y="1010" width="245" height="770" as="geometry" />
        </mxCell>
        <mxCell id="MHCM0cQoQ7_CIhpQqt6W-20" style="edgeStyle=orthogonalEdgeStyle;rounded=0;orthogonalLoop=1;jettySize=auto;html=1;endArrow=none;endFill=0;exitX=1;exitY=0.5;exitDx=0;exitDy=0;" parent="9nqw4tdUZu72CzklbR2p-24" source="MHCM0cQoQ7_CIhpQqt6W-37" edge="1">
          <mxGeometry relative="1" as="geometry">
            <mxPoint x="330" y="100" as="targetPoint" />
            <mxPoint x="200" y="39" as="sourcePoint" />
            <Array as="points">
              <mxPoint x="330" y="259" />
              <mxPoint x="330" y="100" />
            </Array>
          </mxGeometry>
        </mxCell>
        <mxCell id="MHCM0cQoQ7_CIhpQqt6W-36" value="Privacy-focused digital human passport VC" style="swimlane;fontStyle=0;childLayout=stackLayout;horizontal=1;startSize=30;horizontalStack=0;resizeParent=1;resizeParentMax=0;resizeLast=0;collapsible=1;marginBottom=0;whiteSpace=wrap;html=1;" parent="9nqw4tdUZu72CzklbR2p-24" vertex="1">
          <mxGeometry x="10" y="214" width="180" height="140" as="geometry" />
        </mxCell>
        <mxCell id="MHCM0cQoQ7_CIhpQqt6W-37" value="Unique 16/32 bytes-long value, only for non-critical purpose" style="text;strokeColor=none;fillColor=none;align=left;verticalAlign=middle;spacingLeft=4;spacingRight=4;overflow=hidden;points=[[0,0.5],[1,0.5]];portConstraint=eastwest;rotatable=0;whiteSpace=wrap;html=1;" parent="MHCM0cQoQ7_CIhpQqt6W-36" vertex="1">
          <mxGeometry y="30" width="180" height="30" as="geometry" />
        </mxCell>
        <mxCell id="MHCM0cQoQ7_CIhpQqt6W-38" value="... and that is all" style="text;strokeColor=none;fillColor=none;align=left;verticalAlign=middle;spacingLeft=4;spacingRight=4;overflow=hidden;points=[[0,0.5],[1,0.5]];portConstraint=eastwest;rotatable=0;whiteSpace=wrap;html=1;" parent="MHCM0cQoQ7_CIhpQqt6W-36" vertex="1">
          <mxGeometry y="60" width="180" height="80" as="geometry" />
        </mxCell>
        <mxCell id="giGHLxBfAEVUItViNjpn-33" style="edgeStyle=orthogonalEdgeStyle;rounded=0;orthogonalLoop=1;jettySize=auto;html=1;endArrow=none;endFill=0;" edge="1" parent="9nqw4tdUZu72CzklbR2p-24" source="giGHLxBfAEVUItViNjpn-20">
          <mxGeometry relative="1" as="geometry">
            <mxPoint x="325" y="260" as="targetPoint" />
            <Array as="points">
              <mxPoint x="326" y="460" />
            </Array>
          </mxGeometry>
        </mxCell>
        <mxCell id="giGHLxBfAEVUItViNjpn-20" value="Privacy-focused&amp;nbsp;&lt;div&gt;&lt;b&gt;French passport VC&lt;/b&gt;&lt;/div&gt;" style="swimlane;fontStyle=0;childLayout=stackLayout;horizontal=1;startSize=30;horizontalStack=0;resizeParent=1;resizeParentMax=0;resizeLast=0;collapsible=1;marginBottom=0;whiteSpace=wrap;html=1;" vertex="1" parent="9nqw4tdUZu72CzklbR2p-24">
          <mxGeometry x="10" y="370" width="180" height="180" as="geometry" />
        </mxCell>
        <mxCell id="giGHLxBfAEVUItViNjpn-21" value="Passport ID" style="text;strokeColor=none;fillColor=none;align=left;verticalAlign=middle;spacingLeft=4;spacingRight=4;overflow=hidden;points=[[0,0.5],[1,0.5]];portConstraint=eastwest;rotatable=0;whiteSpace=wrap;html=1;" vertex="1" parent="giGHLxBfAEVUItViNjpn-20">
          <mxGeometry y="30" width="180" height="30" as="geometry" />
        </mxCell>
        <mxCell id="giGHLxBfAEVUItViNjpn-22" value="Age" style="text;strokeColor=none;fillColor=none;align=left;verticalAlign=middle;spacingLeft=4;spacingRight=4;overflow=hidden;points=[[0,0.5],[1,0.5]];portConstraint=eastwest;rotatable=0;whiteSpace=wrap;html=1;" vertex="1" parent="giGHLxBfAEVUItViNjpn-20">
          <mxGeometry y="60" width="180" height="30" as="geometry" />
        </mxCell>
        <mxCell id="giGHLxBfAEVUItViNjpn-23" value="Place of birth" style="text;strokeColor=none;fillColor=none;align=left;verticalAlign=middle;spacingLeft=4;spacingRight=4;overflow=hidden;points=[[0,0.5],[1,0.5]];portConstraint=eastwest;rotatable=0;whiteSpace=wrap;html=1;" vertex="1" parent="giGHLxBfAEVUItViNjpn-20">
          <mxGeometry y="90" width="180" height="30" as="geometry" />
        </mxCell>
        <mxCell id="giGHLxBfAEVUItViNjpn-24" value="Sex" style="text;strokeColor=none;fillColor=none;align=left;verticalAlign=middle;spacingLeft=4;spacingRight=4;overflow=hidden;points=[[0,0.5],[1,0.5]];portConstraint=eastwest;rotatable=0;whiteSpace=wrap;html=1;" vertex="1" parent="giGHLxBfAEVUItViNjpn-20">
          <mxGeometry y="120" width="180" height="30" as="geometry" />
        </mxCell>
        <mxCell id="giGHLxBfAEVUItViNjpn-25" value="... other attributes" style="text;strokeColor=none;fillColor=none;align=left;verticalAlign=middle;spacingLeft=4;spacingRight=4;overflow=hidden;points=[[0,0.5],[1,0.5]];portConstraint=eastwest;rotatable=0;whiteSpace=wrap;html=1;" vertex="1" parent="giGHLxBfAEVUItViNjpn-20">
          <mxGeometry y="150" width="180" height="30" as="geometry" />
        </mxCell>
        <mxCell id="giGHLxBfAEVUItViNjpn-26" value="Privacy-focused&amp;nbsp;&lt;div&gt;&lt;b&gt;Diploma VC&lt;/b&gt;&lt;/div&gt;" style="swimlane;fontStyle=0;childLayout=stackLayout;horizontal=1;startSize=30;horizontalStack=0;resizeParent=1;resizeParentMax=0;resizeLast=0;collapsible=1;marginBottom=0;whiteSpace=wrap;html=1;" vertex="1" parent="9nqw4tdUZu72CzklbR2p-24">
          <mxGeometry x="10" y="560" width="180" height="180" as="geometry" />
        </mxCell>
        <mxCell id="giGHLxBfAEVUItViNjpn-27" value="Citizenship" style="text;strokeColor=none;fillColor=none;align=left;verticalAlign=middle;spacingLeft=4;spacingRight=4;overflow=hidden;points=[[0,0.5],[1,0.5]];portConstraint=eastwest;rotatable=0;whiteSpace=wrap;html=1;" vertex="1" parent="giGHLxBfAEVUItViNjpn-26">
          <mxGeometry y="30" width="180" height="30" as="geometry" />
        </mxCell>
        <mxCell id="giGHLxBfAEVUItViNjpn-28" value="Passport ID" style="text;strokeColor=none;fillColor=none;align=left;verticalAlign=middle;spacingLeft=4;spacingRight=4;overflow=hidden;points=[[0,0.5],[1,0.5]];portConstraint=eastwest;rotatable=0;whiteSpace=wrap;html=1;" vertex="1" parent="giGHLxBfAEVUItViNjpn-26">
          <mxGeometry y="60" width="180" height="30" as="geometry" />
        </mxCell>
        <mxCell id="giGHLxBfAEVUItViNjpn-35" style="edgeStyle=orthogonalEdgeStyle;rounded=0;orthogonalLoop=1;jettySize=auto;html=1;endArrow=none;endFill=0;" edge="1" parent="giGHLxBfAEVUItViNjpn-26" source="giGHLxBfAEVUItViNjpn-29">
          <mxGeometry relative="1" as="geometry">
            <mxPoint x="315" y="-110" as="targetPoint" />
          </mxGeometry>
        </mxCell>
        <mxCell id="giGHLxBfAEVUItViNjpn-29" value="Diploma ID" style="text;strokeColor=none;fillColor=none;align=left;verticalAlign=middle;spacingLeft=4;spacingRight=4;overflow=hidden;points=[[0,0.5],[1,0.5]];portConstraint=eastwest;rotatable=0;whiteSpace=wrap;html=1;" vertex="1" parent="giGHLxBfAEVUItViNjpn-26">
          <mxGeometry y="90" width="180" height="30" as="geometry" />
        </mxCell>
        <mxCell id="giGHLxBfAEVUItViNjpn-30" value="... other attributes" style="text;strokeColor=none;fillColor=none;align=left;verticalAlign=middle;spacingLeft=4;spacingRight=4;overflow=hidden;points=[[0,0.5],[1,0.5]];portConstraint=eastwest;rotatable=0;whiteSpace=wrap;html=1;" vertex="1" parent="giGHLxBfAEVUItViNjpn-26">
          <mxGeometry y="120" width="180" height="30" as="geometry" />
        </mxCell>
        <mxCell id="giGHLxBfAEVUItViNjpn-31" value="Sex" style="text;strokeColor=none;fillColor=none;align=left;verticalAlign=middle;spacingLeft=4;spacingRight=4;overflow=hidden;points=[[0,0.5],[1,0.5]];portConstraint=eastwest;rotatable=0;whiteSpace=wrap;html=1;" vertex="1" parent="giGHLxBfAEVUItViNjpn-26">
          <mxGeometry y="150" width="180" height="30" as="geometry" />
        </mxCell>
        <mxCell id="9nqw4tdUZu72CzklbR2p-28" value="&lt;div&gt;Atlantic City University&lt;/div&gt;" style="rounded=0;whiteSpace=wrap;html=1;fillColor=#e1d5e7;strokeColor=#9673a6;" parent="1" vertex="1">
          <mxGeometry x="360" y="650" width="115" height="183" as="geometry" />
        </mxCell>
        <mxCell id="9nqw4tdUZu72CzklbR2p-29" value="French public institutions" style="rounded=0;whiteSpace=wrap;html=1;fillColor=#e1d5e7;strokeColor=#9673a6;" parent="1" vertex="1">
          <mxGeometry x="430" y="440" width="115" height="183" as="geometry" />
        </mxCell>
        <mxCell id="9nqw4tdUZu72CzklbR2p-31" value="Wallet" style="swimlane;whiteSpace=wrap;html=1;dashed=1;" parent="1" vertex="1">
          <mxGeometry x="25" y="420" width="280" height="470" as="geometry" />
        </mxCell>
        <mxCell id="giGHLxBfAEVUItViNjpn-9" value="Privacy-focused&amp;nbsp;&lt;div&gt;&lt;b&gt;Diploma VC&lt;/b&gt;&lt;/div&gt;" style="swimlane;fontStyle=0;childLayout=stackLayout;horizontal=1;startSize=30;horizontalStack=0;resizeParent=1;resizeParentMax=0;resizeLast=0;collapsible=1;marginBottom=0;whiteSpace=wrap;html=1;" vertex="1" parent="9nqw4tdUZu72CzklbR2p-31">
          <mxGeometry x="25" y="250" width="150" height="180" as="geometry" />
        </mxCell>
        <mxCell id="giGHLxBfAEVUItViNjpn-15" value="Citizenship" style="text;strokeColor=none;fillColor=none;align=left;verticalAlign=middle;spacingLeft=4;spacingRight=4;overflow=hidden;points=[[0,0.5],[1,0.5]];portConstraint=eastwest;rotatable=0;whiteSpace=wrap;html=1;" vertex="1" parent="giGHLxBfAEVUItViNjpn-9">
          <mxGeometry y="30" width="150" height="30" as="geometry" />
        </mxCell>
        <mxCell id="giGHLxBfAEVUItViNjpn-10" value="Passport ID" style="text;strokeColor=none;fillColor=none;align=left;verticalAlign=middle;spacingLeft=4;spacingRight=4;overflow=hidden;points=[[0,0.5],[1,0.5]];portConstraint=eastwest;rotatable=0;whiteSpace=wrap;html=1;" vertex="1" parent="giGHLxBfAEVUItViNjpn-9">
          <mxGeometry y="60" width="150" height="30" as="geometry" />
        </mxCell>
        <mxCell id="giGHLxBfAEVUItViNjpn-11" value="Diploma ID" style="text;strokeColor=none;fillColor=none;align=left;verticalAlign=middle;spacingLeft=4;spacingRight=4;overflow=hidden;points=[[0,0.5],[1,0.5]];portConstraint=eastwest;rotatable=0;whiteSpace=wrap;html=1;" vertex="1" parent="giGHLxBfAEVUItViNjpn-9">
          <mxGeometry y="90" width="150" height="30" as="geometry" />
        </mxCell>
        <mxCell id="giGHLxBfAEVUItViNjpn-12" value="... other attributes" style="text;strokeColor=none;fillColor=none;align=left;verticalAlign=middle;spacingLeft=4;spacingRight=4;overflow=hidden;points=[[0,0.5],[1,0.5]];portConstraint=eastwest;rotatable=0;whiteSpace=wrap;html=1;" vertex="1" parent="giGHLxBfAEVUItViNjpn-9">
          <mxGeometry y="120" width="150" height="30" as="geometry" />
        </mxCell>
        <mxCell id="giGHLxBfAEVUItViNjpn-13" value="Sex" style="text;strokeColor=none;fillColor=none;align=left;verticalAlign=middle;spacingLeft=4;spacingRight=4;overflow=hidden;points=[[0,0.5],[1,0.5]];portConstraint=eastwest;rotatable=0;whiteSpace=wrap;html=1;" vertex="1" parent="giGHLxBfAEVUItViNjpn-9">
          <mxGeometry y="150" width="150" height="30" as="geometry" />
        </mxCell>
        <mxCell id="fR_ARmtr7QuyC3QkmkuL-1" value="Decentralized&lt;div&gt;Verifiable&lt;div&gt;Data&lt;/div&gt;&lt;div&gt;Registry&lt;/div&gt;&lt;/div&gt;" style="shape=cylinder3;whiteSpace=wrap;html=1;boundedLbl=1;backgroundOutline=1;size=15;fillColor=#f8cecc;strokeColor=#b85450;" parent="1" vertex="1">
          <mxGeometry x="620" y="440" width="180" height="320" as="geometry" />
        </mxCell>
        <mxCell id="fR_ARmtr7QuyC3QkmkuL-2" style="edgeStyle=orthogonalEdgeStyle;rounded=0;orthogonalLoop=1;jettySize=auto;html=1;entryX=0;entryY=0.61;entryDx=0;entryDy=0;entryPerimeter=0;" parent="1" source="9nqw4tdUZu72CzklbR2p-29" target="giGHLxBfAEVUItViNjpn-18" edge="1">
          <mxGeometry relative="1" as="geometry">
            <mxPoint x="734" y="531" as="targetPoint" />
          </mxGeometry>
        </mxCell>
        <mxCell id="fR_ARmtr7QuyC3QkmkuL-3" style="edgeStyle=orthogonalEdgeStyle;rounded=0;orthogonalLoop=1;jettySize=auto;html=1;entryX=0;entryY=0;entryDx=0;entryDy=52.5;entryPerimeter=0;" parent="1" source="9nqw4tdUZu72CzklbR2p-28" target="giGHLxBfAEVUItViNjpn-17" edge="1">
          <mxGeometry relative="1" as="geometry" />
        </mxCell>
        <mxCell id="fR_ARmtr7QuyC3QkmkuL-11" value="Embedded Polis views" style="rounded=1;whiteSpace=wrap;html=1;fillColor=#f5f5f5;fontColor=#333333;strokeColor=#666666;" parent="1" vertex="1">
          <mxGeometry x="600" y="1010" width="100" height="50" as="geometry" />
        </mxCell>
        <mxCell id="giGHLxBfAEVUItViNjpn-17" value="Statistics per attributes for Atlantic City University" style="shape=cylinder3;whiteSpace=wrap;html=1;boundedLbl=1;backgroundOutline=1;size=15;fillColor=#f8cecc;strokeColor=#b85450;" vertex="1" parent="1">
          <mxGeometry x="700" y="650" width="80" height="100" as="geometry" />
        </mxCell>
        <mxCell id="giGHLxBfAEVUItViNjpn-18" value="Statistics per attributes for French institutions" style="shape=cylinder3;whiteSpace=wrap;html=1;boundedLbl=1;backgroundOutline=1;size=15;fillColor=#f8cecc;strokeColor=#b85450;" vertex="1" parent="1">
          <mxGeometry x="690" y="470" width="80" height="100" as="geometry" />
        </mxCell>
        <mxCell id="giGHLxBfAEVUItViNjpn-36" value="" style="endArrow=none;html=1;rounded=0;fillColor=#f8cecc;strokeColor=#b85450;" edge="1" parent="1">
          <mxGeometry width="50" height="50" relative="1" as="geometry">
            <mxPoint x="520" y="1772" as="sourcePoint" />
            <mxPoint x="240" y="1080" as="targetPoint" />
          </mxGeometry>
        </mxCell>
        <mxCell id="giGHLxBfAEVUItViNjpn-37" value="" style="endArrow=none;html=1;rounded=0;fillColor=#f8cecc;strokeColor=#b85450;" edge="1" parent="1">
          <mxGeometry width="50" height="50" relative="1" as="geometry">
            <mxPoint x="240" y="1740" as="sourcePoint" />
            <mxPoint x="460" y="1080" as="targetPoint" />
          </mxGeometry>
        </mxCell>
        <mxCell id="giGHLxBfAEVUItViNjpn-38" style="edgeStyle=orthogonalEdgeStyle;rounded=0;orthogonalLoop=1;jettySize=auto;html=1;" edge="1" parent="1" source="MHCM0cQoQ7_CIhpQqt6W-55" target="giGHLxBfAEVUItViNjpn-17">
          <mxGeometry relative="1" as="geometry" />
        </mxCell>
        <mxCell id="giGHLxBfAEVUItViNjpn-39" value="1) Either the Wallet or the Agora front&amp;nbsp;&lt;div&gt;requests data and realize t&lt;span style=&quot;background-color: initial;&quot;&gt;hat&amp;nbsp;&lt;/span&gt;&lt;/div&gt;&lt;div&gt;&lt;span style=&quot;background-color: initial;&quot;&gt;the amount&amp;nbsp;&lt;/span&gt;&lt;span style=&quot;background-color: initial;&quot;&gt;of people verifying the selected attributes&amp;nbsp;&lt;/span&gt;&lt;div&gt;&lt;span style=&quot;background-color: initial;&quot;&gt;is only a handful at the maximum&lt;/span&gt;&lt;/div&gt;&lt;/div&gt;" style="text;html=1;align=center;verticalAlign=middle;resizable=0;points=[];autosize=1;strokeColor=none;fillColor=none;" vertex="1" parent="1">
          <mxGeometry x="305" y="920" width="310" height="70" as="geometry" />
        </mxCell>
        <mxCell id="giGHLxBfAEVUItViNjpn-40" style="edgeStyle=orthogonalEdgeStyle;rounded=0;orthogonalLoop=1;jettySize=auto;html=1;entryX=1;entryY=0.5;entryDx=0;entryDy=0;entryPerimeter=0;" edge="1" parent="1" source="MHCM0cQoQ7_CIhpQqt6W-55" target="giGHLxBfAEVUItViNjpn-18">
          <mxGeometry relative="1" as="geometry" />
        </mxCell>
        <mxCell id="giGHLxBfAEVUItViNjpn-41" value="2) Won&#39;t do to preserve anonymity" style="text;html=1;align=center;verticalAlign=middle;resizable=0;points=[];autosize=1;strokeColor=#b85450;fillColor=#f8cecc;" vertex="1" parent="1">
          <mxGeometry x="275" y="1070" width="210" height="30" as="geometry" />
        </mxCell>
      </root>
    </mxGraphModel>
  </diagram>
</mxfile>
